<svg id="kity_svg_6" xmlns="http://www.w3.org/2000/svg" xmlns:xlink="http://www.w3.org/1999/xlink" version="1.1" width="1614" height="695" style="background: rgb(251, 251, 251); visibility: visible;" viewBox="0 0 1614 695"><defs id="kity_defs_7"><linearGradient id="kity_linearGradient_17" x1="0" y1="0" x2="0" y2="1"><stop id="kity_stop_18" offset="0" stop-color="rgb(255, 255, 255)"></stop><stop id="kity_stop_19" offset="1" stop-color="rgb(204, 204, 204)"></stop></linearGradient><marker id="kity_marker_2" orient="auto" refX="6" refY="0" viewBox="-7 -7 14 14" markerWidth="7" markerHeight="7" markerUnits="userSpaceOnUse"><path id="kity_path_3" fill="rgb(115, 161, 191)" stroke="none" d="M6,0A6,6,0,1,1,-6,0A6,6,0,1,1,6,0"></path></marker></defs><g id="kity_g_8"><g id="minder1" text-rendering="geometricPrecision"><g id="minder_connect_group1"><path id="kity_path_31" fill="none" stroke="rgb(115, 161, 191)" stroke-width="1" d="M69.5,351.5A167,187,0,0,1,236.5,164.5"></path><path id="kity_path_39" fill="none" stroke="rgb(115, 161, 191)" stroke-width="1" d="M69.5,351.5A167,176.5,0,0,0,236.5,528"></path><path id="kity_path_47" fill="none" stroke="rgb(115, 161, 191)" stroke-width="1" d="M408.5,164.5C428.5,164.5,428.5,70.5,448.5,70.5"></path><path id="kity_path_63" fill="none" stroke="rgb(115, 161, 191)" stroke-width="1" d="M408.5,164.5C428.5,164.5,428.5,258.5,448.5,258.5"></path><path id="kity_path_70" fill="none" stroke="rgb(115, 161, 191)" stroke-width="1" d="M689.5,70.5C709.5,70.5,709.5,31.5,729.5,31.5"></path><path id="kity_path_72" fill="none" stroke="rgb(115, 161, 191)" stroke-width="1" d="M689.5,70.5C709.5,70.5,709.5,109.5,729.5,109.5"></path><path id="kity_path_80" fill="none" stroke="rgb(115, 161, 191)" stroke-width="1" d="M800.5,31.5C820.5,31.5,820.5,31.5,840.5,31.5"></path><path id="kity_path_88" fill="none" stroke="rgb(115, 161, 191)" stroke-width="1" d="M807.5,109.5C827.5,109.5,827.5,83.5,847.5,83.5"></path><path id="kity_path_96" fill="none" stroke="rgb(115, 161, 191)" stroke-width="1" d="M807.5,109.5C827.5,109.5,827.5,135.5,847.5,135.5"></path><path id="kity_path_282" fill="none" stroke="rgb(115, 161, 191)" stroke-width="1" d="M713.5,187.5C733.5,187.5,733.5,187.5,753.5,187.5"></path><path id="kity_path_283" fill="none" stroke="rgb(115, 161, 191)" stroke-width="1" d="M605.5,258.5C625.5,258.5,625.5,187.5,645.5,187.5"></path><path id="kity_path_284" fill="none" stroke="rgb(115, 161, 191)" stroke-width="1" d="M750.5,239.5C770.5,239.5,770.5,239.5,790.5,239.5"></path><path id="kity_path_285" fill="none" stroke="rgb(115, 161, 191)" stroke-width="1" d="M605.5,258.5C625.5,258.5,625.5,239.5,645.5,239.5"></path><path id="kity_path_286" fill="none" stroke="rgb(115, 161, 191)" stroke-width="1" d="M710.5,330.5C730.5,330.5,730.5,291.5,750.5,291.5"></path><path id="kity_path_287" fill="none" stroke="rgb(115, 161, 191)" stroke-width="1" d="M1109.5,369.5C1129.5,369.5,1129.5,343.5,1149.5,343.5"></path><path id="kity_path_288" fill="none" stroke="rgb(115, 161, 191)" stroke-width="1" d="M1109.5,369.5C1129.5,369.5,1129.5,395.5,1149.5,395.5"></path><path id="kity_path_289" fill="none" stroke="rgb(115, 161, 191)" stroke-width="1" d="M710.5,330.5C730.5,330.5,730.5,369.5,750.5,369.5"></path><path id="kity_path_290" fill="none" stroke="rgb(115, 161, 191)" stroke-width="1" d="M605.5,258.5C625.5,258.5,625.5,330.5,645.5,330.5"></path><path id="kity_path_292" fill="none" stroke="rgb(115, 161, 191)" stroke-width="1" d="M799.5,456.5C819.5,456.5,819.5,456.5,839.5,456.5"></path><path id="kity_path_293" fill="none" stroke="rgb(115, 161, 191)" stroke-width="1" d="M684.5,528.5C704.5,528,704.5,456.5,724.5,456.5"></path><path id="kity_path_294" fill="none" stroke="rgb(115, 161, 191)" stroke-width="1" d="M837.5,508.5C857.5,508.5,857.5,508.5,877.5,508.5"></path><path id="kity_path_295" fill="none" stroke="rgb(115, 161, 191)" stroke-width="1" d="M684.5,528.5C704.5,528,704.5,508.5,724.5,508.5"></path><path id="kity_path_296" fill="none" stroke="rgb(115, 161, 191)" stroke-width="1" d="M796.5,599.5C816.5,599.5,816.5,560.5,836.5,560.5"></path><path id="kity_path_297" fill="none" stroke="rgb(115, 161, 191)" stroke-width="1" d="M1230.5,638.5C1250.5,638.5,1250.5,612.5,1270.5,612.5"></path><path id="kity_path_298" fill="none" stroke="rgb(115, 161, 191)" stroke-width="1" d="M1230.5,638.5C1250.5,638.5,1250.5,664.5,1270.5,664.5"></path><path id="kity_path_299" fill="none" stroke="rgb(115, 161, 191)" stroke-width="1" d="M796.5,599.5C816.5,599.5,816.5,638.5,836.5,638.5"></path><path id="kity_path_300" fill="none" stroke="rgb(115, 161, 191)" stroke-width="1" d="M684.5,528.5C704.5,528,704.5,599.5,724.5,599.5"></path></g><g id="minder_node1"><path id="kity_path_224" fill="rgba(0, 0, 0, .25)" stroke="none" d="M50.5,329.5h70a27,27,0,0,1,27,27v0a27,27,0,0,1,-27,27h-70a27,27,0,0,1,-27,-27v0a27,27,0,0,1,27,-27z" display="none"></path><path id="node_outline1" fill="rgb(115, 161, 191)" stroke="rgb(115, 161, 191)" d="M25.5,331.5h88a5,5,0,0,1,5,5v30a5,5,0,0,1,-5,5h-88a5,5,0,0,1,-5,-5v-30a5,5,0,0,1,5,-5z" stroke-width="3"></path><g id="node_text1" fill="white"><text id="kity_text_22" text-rendering="inherit" font-size="16" dy=".8em" y="341.09999990463257" x="44.5">集合类</text></g></g><g id="kity_g_14" display="none"><path id="kity_path_15" fill="none" stroke="none" d="M44.5,351.5h0v0h0z"></path><path id="kity_path_16" fill="none" stroke="none"></path></g><g id="minder_node2" opacity="1"><path id="kity_path_222" fill="rgba(0, 0, 0, .25)" stroke="none" d="M252.5,155.5h168a10,10,0,0,1,10,10v8a10,10,0,0,1,-10,10h-168a10,10,0,0,1,-10,-10v-8a10,10,0,0,1,10,-10z" display="none"></path><g id="node_expander1" style="cursor: pointer;"><path id="kity_path_36" fill="white" stroke="gray" d="M237.5,164.5A6,6,0,1,1,225.5,164.5A6,6,0,1,1,237.5,164.5"></path><path id="kity_path_37" fill="none" stroke="gray" d="M227,164.5L236,164.5"></path></g><path id="node_outline2" fill="rgb(238, 243, 246)" stroke="rgb(115, 161, 191)" d="M241.5,151.5h164a3,3,0,0,1,3,3v20a3,3,0,0,1,-3,3h-164a3,3,0,0,1,-3,-3v-20a3,3,0,0,1,3,-3z" stroke-width="1"></path><g id="node_text2" fill="black"><text id="kity_text_33" text-rendering="inherit" font-size="14" dy=".8em" y="155.40000009536743" x="258.5">interface Collection</text></g></g><g id="minder_node3" opacity="1"><path id="kity_path_223" fill="rgba(0, 0, 0, .25)" stroke="none" d="M252.5,506.5h484a10,10,0,0,1,10,10v32a10,10,0,0,1,-10,10h-484a10,10,0,0,1,-10,-10v-32a10,10,0,0,1,10,-10z" display="none"></path><g id="node_expander2" style="cursor: pointer;"><path id="kity_path_44" fill="white" stroke="gray" d="M237.5,528A6,6,0,1,1,225.5,528A6,6,0,1,1,237.5,528"></path><path id="kity_path_45" fill="none" stroke="gray" d="M227,528L236,528"></path></g><path id="node_outline3" fill="rgb(238, 243, 246)" stroke="rgb(115, 161, 191)" d="M241.5,504.5h440a3,3,0,0,1,3,3v41a3,3,0,0,1,-3,3h-440a3,3,0,0,1,-3,-3v-41a3,3,0,0,1,3,-3z" stroke-width="1"></path><g id="node_text3" fill="black"><text id="kity_text_41" text-rendering="inherit" font-size="14" dy=".8em" y="507.90000009536743" x="258.5">interface Map</text><text id="kity_text_291" text-rendering="inherit" font-size="14" dy=".8em" y="528.9000000953674" x="258.5">使用key-value来映射和存储数据，Key必须惟一，value可以重复</text></g></g><g id="minder_node4" opacity="1"><g id="node_expander3" style="cursor: pointer;"><path id="kity_path_52" fill="white" stroke="gray" d="M448.5,70.5A6,6,0,1,1,436.5,70.5A6,6,0,1,1,448.5,70.5"></path><path id="kity_path_53" fill="none" stroke="gray" d="M438,70.5L447,70.5"></path></g><path id="node_outline4" fill="none" stroke="none" d="M453.5,50.5h231a5,5,0,0,1,5,5v30a5,5,0,0,1,-5,5h-231a5,5,0,0,1,-5,-5v-30a5,5,0,0,1,5,-5z" stroke-width="3"></path><g id="node_text4" fill="black"><text id="kity_text_49" text-rendering="inherit" font-size="12" dy=".8em" y="53.700000047683716" x="458.5">interface List</text><text id="kity_text_280" text-rendering="inherit" font-size="12" dy=".8em" y="71.70000004768372" x="458.5">有顺序以线性方式存储,可以存放重复对象</text></g></g><g id="minder_node6" opacity="1"><g id="node_expander5" style="cursor: pointer;"><path id="kity_path_68" fill="white" stroke="gray" d="M448.5,258.5A6,6,0,1,1,436.5,258.5A6,6,0,1,1,448.5,258.5"></path><path id="kity_path_69" fill="none" stroke="gray" d="M438,258.5L447,258.5"></path></g><path id="node_outline6" fill="none" stroke="none" d="M453.5,238.5h147a5,5,0,0,1,5,5v30a5,5,0,0,1,-5,5h-147a5,5,0,0,1,-5,-5v-30a5,5,0,0,1,5,-5z" stroke-width="3"></path><g id="node_text6" fill="black"><text id="kity_text_65" text-rendering="inherit" font-size="12" dy=".8em" y="241.70000004768372" x="458.5">interface Set</text><text id="kity_text_281" text-rendering="inherit" font-size="12" dy=".8em" y="259.7000000476837" x="458.5">无顺序,不包含重复的元素</text></g><g id="node_priority1" display="none"><path id="kity_path_267" fill="#4720C4" stroke="none" d="M434,262c0,3.866,3.134,7,7,7h6c3.866,0,7,-3.134,7,-7V256H434V262z"></path><path id="kity_path_268" fill="#A464FF" stroke="none" d="M454,259c0,3.866,-3.134,7,-7,7H441c-3.866,0,-7,-3.134,-7,-7V256c0,-3.866,3.134,-7,7,-7h6c3.866,0,7,3.134,7,7V259z" opacity="0.8"></path><text id="kity_text_269" text-rendering="geometricPrecision" x="443" y="258.5" text-anchor="middle" font-style="italic" font-size="12" fill="white" dy="5">5</text></g><g id="node_progress1" display="none"><path id="kity_path_271" fill="#FFED83" stroke="none" d="M453,259A9,9,0,1,1,435,259A9,9,0,1,1,453,259"></path><path id="kity_path_272" fill="#43BC00" stroke="none" d="M444,259"></path><path id="kity_path_273" fill="#8E8E8E" stroke="none" d="M444,252c4.418,0,8,3.582,8,8h1c0,-5.523,-3.477,-10,-9,-10S435,254.477,435,260h1C436,255.582,439.582,252,444,252z"></path><path id="kity_path_275" fill="#EEE" stroke="none" d="M459.812,266.896l-6.75,6.75l-4.5,-4.5L450.25,267.459l2.812,2.803l5.062,-5.053L459.812,266.896z" display="none"></path><path id="kity_path_274" fill="url(#kity_linearGradient_17)" stroke="none" d="M444,249C438.477,249,434,253.477,434,259c0,5.523,4.477,10,10,10s10,-4.477,10,-10C454,253.477,449.523,249,444,249zM444,267c-4.418,0,-8,-3.582,-8,-8s3.582,-8,8,-8s8,3.582,8,8S448.418,267,444,267z"></path></g><g id="kity_g_276" display="none"><g id="kity_g_277"><path id="kity_path_278" fill="rgb(255, 244, 179)" stroke="none" d="M535.5,245.5h30v24h-30z"></path><text id="kity_text_279" text-rendering="geometricPrecision" font-size="12" dy="5" x="543.5" fill="rgb(77, 65, 0)" y="257.5">就</text></g></g></g><g id="minder_node5"><g id="node_expander4" style="cursor: pointer;"><path id="kity_path_60" fill="white" stroke="gray" d="M729.5,31.5A6,6,0,1,1,717.5,31.5A6,6,0,1,1,729.5,31.5"></path><path id="kity_path_61" fill="none" stroke="gray" d="M719,31.5L728,31.5"></path></g><path id="node_outline5" fill="none" stroke="none" d="M734.5,20.5h61a5,5,0,0,1,5,5v12a5,5,0,0,1,-5,5h-61a5,5,0,0,1,-5,-5v-12a5,5,0,0,1,5,-5z" stroke-width="3"></path><g id="node_text5" fill="black"><text id="kity_text_57" text-rendering="inherit" font-size="12" dy=".8em" y="23.700000047683716" x="739.5">ArrayList</text></g></g><g id="minder_node7"><g id="node_expander6" style="cursor: pointer;"><path id="kity_path_77" fill="white" stroke="gray" d="M729.5,109.5A6,6,0,1,1,717.5,109.5A6,6,0,1,1,729.5,109.5"></path><path id="kity_path_78" fill="none" stroke="gray" d="M719,109.5L728,109.5"></path></g><path id="node_outline7" fill="none" stroke="none" d="M734.5,98.5h68a5,5,0,0,1,5,5v12a5,5,0,0,1,-5,5h-68a5,5,0,0,1,-5,-5v-12a5,5,0,0,1,5,-5z" stroke-width="3"></path><g id="node_text7" fill="black"><text id="kity_text_74" text-rendering="inherit" font-size="12" dy=".8em" y="101.70000004768372" x="739.5">LinkedList</text></g></g><g id="minder_node8"><g id="node_expander7" style="cursor: pointer;" display="none"><path id="kity_path_85" fill="white" stroke="gray" d="M840.5,31.5A6,6,0,1,1,828.5,31.5A6,6,0,1,1,840.5,31.5"></path><path id="kity_path_86" fill="none" stroke="gray"></path></g><path id="node_outline8" fill="none" stroke="none" d="M845.5,20.5h215a5,5,0,0,1,5,5v12a5,5,0,0,1,-5,5h-215a5,5,0,0,1,-5,-5v-12a5,5,0,0,1,5,-5z" stroke-width="3"></path><g id="node_text8" fill="black"><text id="kity_text_82" text-rendering="inherit" font-size="12" dy=".8em" y="23.700000047683716" x="850.5">随机访问速度较快，插入与删除速度慢</text></g></g><g id="minder_node9"><g id="node_expander8" style="cursor: pointer;" display="none"><path id="kity_path_93" fill="white" stroke="gray" d="M847.5,83.5A6,6,0,1,1,835.5,83.5A6,6,0,1,1,847.5,83.5"></path><path id="kity_path_94" fill="none" stroke="gray"></path></g><path id="node_outline9" fill="none" stroke="none" d="M852.5,72.5h190a5,5,0,0,1,5,5v12a5,5,0,0,1,-5,5h-190a5,5,0,0,1,-5,-5v-12a5,5,0,0,1,5,-5z" stroke-width="3"></path><g id="node_text9" fill="black"><text id="kity_text_90" text-rendering="inherit" font-size="12" dy=".8em" y="75.70000004768372" x="857.5">随机访问速度慢，插入删除速度快</text></g></g><g id="minder_node10"><g id="node_expander9" style="cursor: pointer;" display="none"><path id="kity_path_101" fill="white" stroke="gray" d="M847.5,135.5A6,6,0,1,1,835.5,135.5A6,6,0,1,1,847.5,135.5"></path><path id="kity_path_102" fill="none" stroke="gray"></path></g><path id="node_outline10" fill="none" stroke="none" d="M852.5,124.5h191a5,5,0,0,1,5,5v12a5,5,0,0,1,-5,5h-191a5,5,0,0,1,-5,-5v-12a5,5,0,0,1,5,-5z" stroke-width="3"></path><g id="node_text10" fill="black"><text id="kity_text_98" text-rendering="inherit" font-size="12" dy=".8em" y="127.70000004768372" x="857.5">可以当做栈、队列、双向队列使用</text></g></g><g id="kity_g_12" display="none"><path id="kity_path_13" fill="none" stroke="rgb(66, 94, 112)" d="M356.5,455.5h127a3,3,0,0,1,3,3v20a3,3,0,0,1,-3,3h-127a3,3,0,0,1,-3,-3v-20a3,3,0,0,1,3,-3z" stroke-width="5"></path></g><g id="minder_node15"><g id="node_expander14" style="cursor: pointer;" display="none"><path id="kity_path_141" fill="white" stroke="gray" d="M753.5,187.5A6,6,0,1,1,741.5,187.5A6,6,0,1,1,753.5,187.5"></path><path id="kity_path_142" fill="none" stroke="gray"></path></g><path id="node_outline15" fill="none" stroke="none" d="M758.5,176.5h179a5,5,0,0,1,5,5v12a5,5,0,0,1,-5,5h-179a5,5,0,0,1,-5,-5v-12a5,5,0,0,1,5,-5z" stroke-width="3"></path><g id="node_text15" fill="black"><text id="kity_text_138" text-rendering="inherit" font-size="12" dy=".8em" y="179.70000004768372" x="763.5">利用哈希算法储存，存取速度快</text></g></g><g id="minder_node11"><g id="node_expander10" style="cursor: pointer;"><path id="kity_path_109" fill="white" stroke="gray" d="M645.5,187.5A6,6,0,1,1,633.5,187.5A6,6,0,1,1,645.5,187.5"></path><path id="kity_path_110" fill="none" stroke="gray" d="M635,187.5L644,187.5"></path></g><path id="node_outline11" fill="none" stroke="none" d="M650.5,176.5h58a5,5,0,0,1,5,5v12a5,5,0,0,1,-5,5h-58a5,5,0,0,1,-5,-5v-12a5,5,0,0,1,5,-5z" stroke-width="3"></path><g id="node_text11" fill="black"><text id="kity_text_106" text-rendering="inherit" font-size="12" dy=".8em" y="179.70000004768372" x="655.5">HashSet</text></g></g><g id="minder_node16"><g id="node_expander15" style="cursor: pointer;" display="none"><path id="kity_path_149" fill="white" stroke="gray" d="M790.5,239.5A6,6,0,1,1,778.5,239.5A6,6,0,1,1,790.5,239.5"></path><path id="kity_path_150" fill="none" stroke="gray"></path></g><path id="node_outline16" fill="none" stroke="none" d="M795.5,228.5h227a5,5,0,0,1,5,5v12a5,5,0,0,1,-5,5h-227a5,5,0,0,1,-5,-5v-12a5,5,0,0,1,5,-5z" stroke-width="3"></path><g id="node_text16" fill="black"><text id="kity_text_146" text-rendering="inherit" font-size="12" dy=".8em" y="231.70000004768372" x="800.5">和HashSet相似，但是会保存插入的顺序</text></g></g><g id="minder_node14"><g id="node_expander13" style="cursor: pointer;"><path id="kity_path_133" fill="white" stroke="gray" d="M645.5,239.5A6,6,0,1,1,633.5,239.5A6,6,0,1,1,645.5,239.5"></path><path id="kity_path_134" fill="none" stroke="gray" d="M635,239.5L644,239.5"></path></g><path id="node_outline14" fill="none" stroke="none" d="M650.5,228.5h95a5,5,0,0,1,5,5v12a5,5,0,0,1,-5,5h-95a5,5,0,0,1,-5,-5v-12a5,5,0,0,1,5,-5z" stroke-width="3"></path><g id="node_text14" fill="black"><text id="kity_text_130" text-rendering="inherit" font-size="12" dy=".8em" y="231.70000004768372" x="655.5">LinkedHashSet</text></g></g><g id="minder_node17"><g id="node_expander16" style="cursor: pointer;" display="none"><path id="kity_path_157" fill="white" stroke="gray" d="M750.5,291.5A6,6,0,1,1,738.5,291.5A6,6,0,1,1,750.5,291.5"></path><path id="kity_path_158" fill="none" stroke="gray"></path></g><path id="node_outline17" fill="none" stroke="none" d="M755.5,280.5h156a5,5,0,0,1,5,5v12a5,5,0,0,1,-5,5h-156a5,5,0,0,1,-5,-5v-12a5,5,0,0,1,5,-5z" stroke-width="3"></path><g id="node_text17" fill="black"><text id="kity_text_154" text-rendering="inherit" font-size="12" dy=".8em" y="283.7000000476837" x="760.5">基于红黑树数据结构的实现</text></g></g><g id="minder_node19"><g id="node_expander18" style="cursor: pointer;" display="none"><path id="kity_path_173" fill="white" stroke="gray" d="M1149.5,343.5A6,6,0,1,1,1137.5,343.5A6,6,0,1,1,1149.5,343.5"></path><path id="kity_path_174" fill="none" stroke="gray"></path></g><path id="node_outline19" fill="none" stroke="none" d="M1154.5,332.5h303a5,5,0,0,1,5,5v12a5,5,0,0,1,-5,5h-303a5,5,0,0,1,-5,-5v-12a5,5,0,0,1,5,-5z" stroke-width="3"></path><g id="node_text19" fill="black"><text id="kity_text_170" text-rendering="inherit" font-size="12" dy=".8em" y="335.7000000476837" x="1159.5">&#xa0;自然排序（元素具备比较性）：实现Comparable接口&#xa0;</text></g></g><g id="minder_node20"><g id="node_expander19" style="cursor: pointer;" display="none"><path id="kity_path_181" fill="white" stroke="gray" d="M1149.5,395.5A6,6,0,1,1,1137.5,395.5A6,6,0,1,1,1149.5,395.5"></path><path id="kity_path_182" fill="none" stroke="gray"></path></g><path id="node_outline20" fill="none" stroke="none" d="M1154.5,384.5h314a5,5,0,0,1,5,5v12a5,5,0,0,1,-5,5h-314a5,5,0,0,1,-5,-5v-12a5,5,0,0,1,5,-5z" stroke-width="3"></path><g id="node_text20" fill="black"><text id="kity_text_178" text-rendering="inherit" font-size="12" dy=".8em" y="387.7000000476837" x="1159.5">&#xa0; 比较器排序（集合具备比较性）：实现Comparator接口</text></g></g><g id="minder_node18"><g id="node_expander17" style="cursor: pointer;"><path id="kity_path_165" fill="white" stroke="gray" d="M750.5,369.5A6,6,0,1,1,738.5,369.5A6,6,0,1,1,750.5,369.5"></path><path id="kity_path_166" fill="none" stroke="gray" d="M740,369.5L749,369.5"></path></g><path id="node_outline18" fill="none" stroke="none" d="M755.5,358.5h349a5,5,0,0,1,5,5v12a5,5,0,0,1,-5,5h-349a5,5,0,0,1,-5,-5v-12a5,5,0,0,1,5,-5z" stroke-width="3"></path><g id="node_text18" fill="black"><text id="kity_text_162" text-rendering="inherit" font-size="12" dy=".8em" y="361.7000000476837" x="760.5">元素会被排序，具体次序由Comparable或者Comparator决定&#xa0;&#xa0;</text></g></g><g id="minder_node12"><g id="node_expander11" style="cursor: pointer;"><path id="kity_path_117" fill="white" stroke="gray" d="M645.5,330.5A6,6,0,1,1,633.5,330.5A6,6,0,1,1,645.5,330.5"></path><path id="kity_path_118" fill="none" stroke="gray" d="M635,330.5L644,330.5"></path></g><path id="node_outline12" fill="none" stroke="none" d="M650.5,319.5h55a5,5,0,0,1,5,5v12a5,5,0,0,1,-5,5h-55a5,5,0,0,1,-5,-5v-12a5,5,0,0,1,5,-5z" stroke-width="3"></path><g id="node_text12" fill="black"><text id="kity_text_114" text-rendering="inherit" font-size="12" dy=".8em" y="322.7000000476837" x="655.5">TreeSet</text></g></g><g id="minder_node24" opacity="1"><g id="node_expander23" style="cursor: pointer;" display="none"><path id="kity_path_219" fill="white" stroke="gray" d="M839.5,456.5A6,6,0,1,1,827.5,456.5A6,6,0,1,1,839.5,456.5"></path><path id="kity_path_220" fill="none" stroke="gray"></path></g><path id="node_outline24" fill="none" stroke="none" d="M844.5,445.5h215a5,5,0,0,1,5,5v12a5,5,0,0,1,-5,5h-215a5,5,0,0,1,-5,-5v-12a5,5,0,0,1,5,-5z" stroke-width="3"></path><g id="node_text24" fill="black"><text id="kity_text_216" text-rendering="inherit" font-size="12" dy=".8em" y="448.7000000476837" x="849.5">插入和查询“键值对”的开销是固定的</text></g></g><g id="minder_node21" opacity="1"><g id="node_expander20" style="cursor: pointer;"><path id="kity_path_189" fill="white" stroke="gray" d="M724.5,456.5A6,6,0,1,1,712.5,456.5A6,6,0,1,1,724.5,456.5"></path><path id="kity_path_190" fill="none" stroke="gray" d="M714,456.5L723,456.5"></path></g><path id="node_outline21" fill="none" stroke="none" d="M729.5,445.5h65a5,5,0,0,1,5,5v12a5,5,0,0,1,-5,5h-65a5,5,0,0,1,-5,-5v-12a5,5,0,0,1,5,-5z" stroke-width="3"></path><g id="node_text21" fill="black"><text id="kity_text_186" text-rendering="inherit" font-size="12" dy=".8em" y="448.7000000476837" x="734.5">HashMap</text></g></g><g id="minder_node25"><g id="node_expander24" style="cursor: pointer;" display="none"><path id="kity_path_231" fill="white" stroke="gray" d="M877.5,508.5A6,6,0,1,1,865.5,508.5A6,6,0,1,1,877.5,508.5"></path><path id="kity_path_232" fill="none" stroke="gray"></path></g><path id="node_outline25" fill="none" stroke="none" d="M882.5,497.5h427a5,5,0,0,1,5,5v12a5,5,0,0,1,-5,5h-427a5,5,0,0,1,-5,-5v-12a5,5,0,0,1,5,-5z" stroke-width="3"></path><g id="node_text25" fill="black"><text id="kity_text_228" text-rendering="inherit" font-size="12" dy=".8em" y="500.7000000476837" x="887.5">类似于HashMap，但是迭代遍历的时候，获得“键值对”的顺序是插入的顺序</text></g></g><g id="minder_node22"><g id="node_expander21" style="cursor: pointer;"><path id="kity_path_197" fill="white" stroke="gray" d="M724.5,508.5A6,6,0,1,1,712.5,508.5A6,6,0,1,1,724.5,508.5"></path><path id="kity_path_198" fill="none" stroke="gray" d="M714,508.5L723,508.5"></path></g><path id="node_outline22" fill="none" stroke="none" d="M729.5,497.5h103a5,5,0,0,1,5,5v12a5,5,0,0,1,-5,5h-103a5,5,0,0,1,-5,-5v-12a5,5,0,0,1,5,-5z" stroke-width="3"></path><g id="node_text22" fill="black"><text id="kity_text_194" text-rendering="inherit" font-size="12" dy=".8em" y="500.7000000476837" x="734.5">LinkedHashMap</text></g></g><g id="minder_node26"><g id="node_expander25" style="cursor: pointer;" display="none"><path id="kity_path_239" fill="white" stroke="gray" d="M836.5,560.5A6,6,0,1,1,824.5,560.5A6,6,0,1,1,836.5,560.5"></path><path id="kity_path_240" fill="none" stroke="gray"></path></g><path id="node_outline26" fill="none" stroke="none" d="M841.5,549.5h156a5,5,0,0,1,5,5v12a5,5,0,0,1,-5,5h-156a5,5,0,0,1,-5,-5v-12a5,5,0,0,1,5,-5z" stroke-width="3"></path><g id="node_text26" fill="black"><text id="kity_text_236" text-rendering="inherit" font-size="12" dy=".8em" y="552.7000000476837" x="846.5">基于红黑树的数据结构实现</text></g></g><g id="minder_node28"><g id="node_expander28" style="cursor: pointer;" display="none"><path id="kity_path_263" fill="white" stroke="gray" d="M1270.5,612.5A6,6,0,1,1,1258.5,612.5A6,6,0,1,1,1270.5,612.5"></path><path id="kity_path_264" fill="none" stroke="gray"></path></g><path id="node_outline29" fill="none" stroke="none" d="M1275.5,601.5h303a5,5,0,0,1,5,5v12a5,5,0,0,1,-5,5h-303a5,5,0,0,1,-5,-5v-12a5,5,0,0,1,5,-5z" stroke-width="3"></path><g id="node_text29" fill="black"><text id="kity_text_260" text-rendering="inherit" font-size="12" dy=".8em" y="604.7000000476837" x="1280.5">&#xa0;自然排序（元素具备比较性）：实现Comparable接口&#xa0;</text></g></g><g id="minder_node29"><g id="node_expander27" style="cursor: pointer;" display="none"><path id="kity_path_257" fill="white" stroke="gray" d="M1270.5,664.5A6,6,0,1,1,1258.5,664.5A6,6,0,1,1,1270.5,664.5"></path><path id="kity_path_258" fill="none" stroke="gray"></path></g><path id="node_outline28" fill="none" stroke="none" d="M1275.5,653.5h314a5,5,0,0,1,5,5v12a5,5,0,0,1,-5,5h-314a5,5,0,0,1,-5,-5v-12a5,5,0,0,1,5,-5z" stroke-width="3"></path><g id="node_text28" fill="black"><text id="kity_text_254" text-rendering="inherit" font-size="12" dy=".8em" y="656.7000000476837" x="1280.5">&#xa0; 比较器排序（集合具备比较性）：实现Comparator接口</text></g></g><g id="minder_node27"><g id="node_expander26" style="cursor: pointer;"><path id="kity_path_247" fill="white" stroke="gray" d="M836.5,638.5A6,6,0,1,1,824.5,638.5A6,6,0,1,1,836.5,638.5"></path><path id="kity_path_248" fill="none" stroke="gray" d="M826,638.5L835,638.5"></path></g><path id="node_outline27" fill="none" stroke="none" d="M841.5,627.5h384a5,5,0,0,1,5,5v12a5,5,0,0,1,-5,5h-384a5,5,0,0,1,-5,-5v-12a5,5,0,0,1,5,-5z" stroke-width="3"></path><g id="node_text27" fill="black"><text id="kity_text_244" text-rendering="inherit" font-size="12" dy=".8em" y="630.7000000476837" x="846.5">它们的次序会被排序，具体次序由Comparable或者Comparator决定&#xa0;&#xa0;</text></g></g><g id="minder_node23"><g id="node_expander22" style="cursor: pointer;"><path id="kity_path_205" fill="white" stroke="gray" d="M724.5,599.5A6,6,0,1,1,712.5,599.5A6,6,0,1,1,724.5,599.5"></path><path id="kity_path_206" fill="none" stroke="gray" d="M714,599.5L723,599.5"></path></g><path id="node_outline23" fill="none" stroke="none" d="M729.5,588.5h62a5,5,0,0,1,5,5v12a5,5,0,0,1,-5,5h-62a5,5,0,0,1,-5,-5v-12a5,5,0,0,1,5,-5z" stroke-width="3"></path><g id="node_text23" fill="black"><text id="kity_text_202" text-rendering="inherit" font-size="12" dy=".8em" y="591.7000000476837" x="734.5">TreeMap</text></g></g></g></g></svg>